<?xml version="1.0" standalone="no"?><!DOCTYPE svg PUBLIC "-//W3C//DTD SVG 1.1//EN" "http://www.w3.org/Graphics/SVG/1.1/DTD/svg11.dtd"><svg t="1530732160901" class="icon" style="" viewBox="0 0 1024 1024" version="1.1" xmlns="http://www.w3.org/2000/svg" p-id="3531" xmlns:xlink="http://www.w3.org/1999/xlink" width="32" height="32"><defs><style type="text/css"></style></defs><path d="M273.92 849.92c-5.12 0-7.68 0-10.24-2.56-7.68-5.12-10.24-12.8-10.24-20.48L256 197.12c0-7.68 5.12-15.36 10.24-20.48 7.68-5.12 15.36-5.12 23.04 0l542.72 317.44c7.68 5.12 10.24 12.8 10.24 20.48 0 7.68-5.12 15.36-10.24 20.48L284.16 847.36c-2.56 0-7.68 2.56-10.24 2.56z m25.6-611.84l-5.12 550.4 478.72-271.36L299.52 238.08z" fill="#ffffff" p-id="3532"></path></svg>