<?xml version="1.0" standalone="no"?><!DOCTYPE svg PUBLIC "-//W3C//DTD SVG 1.1//EN" "http://www.w3.org/Graphics/SVG/1.1/DTD/svg11.dtd"><svg t="1530732627062" class="icon" style="" viewBox="0 0 1024 1024" version="1.1" xmlns="http://www.w3.org/2000/svg" p-id="7279" xmlns:xlink="http://www.w3.org/1999/xlink" width="32" height="32"><defs><style type="text/css"></style></defs><path d="M815.2 273H645.1V167.7c0-21.9-17.8-39.7-39.7-39.7H418.6c-21.9 0-39.7 17.8-39.7 39.7V273H208.8c-14 0-25.3 11.3-25.3 25.3s11.3 25.3 25.3 25.3h606.5c14 0 25.3-11.3 25.3-25.3-0.1-14-11.4-25.3-25.4-25.3z m-385.7 0v-94.4h164.9V273H429.5zM726.4 383.1c-14 0-25.3 11.3-25.3 25.3v437H322.9v-437c0-14-11.3-25.3-25.3-25.3s-25.3 11.3-25.3 25.3v447.1c0 22.3 18.6 40.5 41.5 40.5h396.6c22.9 0 41.5-18.2 41.5-40.5V408.4c-0.2-14-11.5-25.3-25.5-25.3z" p-id="7280" fill="#ffffff"></path><path d="M469.8 739.9V408.4c0-14-11.3-25.3-25.3-25.3s-25.3 11.3-25.3 25.3v331.5c0 14 11.3 25.3 25.3 25.3s25.3-11.3 25.3-25.3zM604.8 739.9V408.4c0-14-11.3-25.3-25.3-25.3s-25.3 11.3-25.3 25.3v331.5c0 14 11.3 25.3 25.3 25.3s25.3-11.3 25.3-25.3z" p-id="7281" fill="#ffffff"></path></svg>